<?xml version="1.0" standalone="no"?>
<!DOCTYPE svg PUBLIC "-//W3C//DTD SVG 20010904//EN"
 "http://www.w3.org/TR/2001/REC-SVG-20010904/DTD/svg10.dtd">
<svg version="1.0" xmlns="http://www.w3.org/2000/svg"
 width="920.000000pt" height="920.000000pt" viewBox="0 0 920.000000 920.000000"
 preserveAspectRatio="xMidYMid meet">

<g transform="translate(0.000000,920.000000) scale(0.100000,-0.100000)"
fill="#000000" stroke="none">
<path d="M4484 8830 c-164 -22 -322 -137 -423 -307 -23 -39 -69 -135 -101
-212 -122 -294 -172 -365 -267 -386 -47 -10 -119 8 -376 91 -252 82 -346 99
-463 84 -185 -23 -339 -130 -418 -290 -49 -97 -61 -152 -60 -270 0 -127 21
-232 80 -406 24 -73 44 -134 44 -137 0 -3 -46 -33 -103 -68 -701 -427 -1288
-1065 -1642 -1784 -500 -1016 -521 -2108 -57 -2940 124 -224 249 -391 432
-579 267 -274 540 -470 920 -660 545 -271 1121 -425 1890 -503 274 -28 1008
-25 1295 5 1213 126 2160 525 2773 1167 397 416 634 899 724 1476 20 125 23
182 23 439 -1 315 -8 396 -61 665 -123 619 -423 1230 -868 1772 -121 147 -433
457 -589 585 -70 58 -196 153 -280 211 -83 59 -161 113 -172 120 -20 14 -20
16 -2 118 9 57 40 187 68 289 89 331 101 415 74 537 -66 300 -349 489 -645
429 -108 -22 -164 -46 -340 -147 -222 -126 -411 -209 -478 -209 -15 0 -46 9
-69 19 -67 31 -121 116 -210 334 -113 278 -197 397 -338 482 -106 63 -239 91
-361 75z m136 -366 c69 -14 133 -110 230 -344 92 -222 135 -296 225 -385 125
-126 239 -175 406 -175 154 0 254 35 532 188 168 93 317 162 363 169 66 11
141 -31 175 -100 28 -54 22 -113 -32 -323 -116 -447 -134 -561 -126 -813 6
-226 36 -355 127 -536 75 -151 119 -211 173 -236 114 -51 243 20 255 141 6 66
0 83 -52 163 -46 70 -110 211 -104 229 9 26 337 -252 528 -448 835 -857 1220
-1975 1024 -2979 -160 -820 -775 -1477 -1739 -1858 -1119 -443 -2714 -470
-3900 -67 -612 207 -1131 545 -1461 950 -571 701 -671 1688 -272 2689 281 707
801 1344 1471 1802 l119 81 -8 -48 c-11 -73 -49 -178 -96 -263 -91 -166 -90
-163 -85 -218 4 -60 33 -108 85 -144 28 -19 48 -24 97 -24 78 0 121 27 174
110 131 206 194 419 193 655 0 155 -21 264 -97 513 -66 212 -85 292 -85 365 0
98 38 145 139 172 63 17 135 1 401 -88 215 -72 230 -76 335 -80 186 -7 306 38
430 163 80 79 134 165 195 310 114 270 127 295 184 369 45 59 106 77 196 60z"/>
<path d="M4505 7004 c-50 -18 -83 -49 -106 -99 -17 -37 -19 -73 -19 -444 0
-392 1 -406 21 -449 56 -114 213 -133 298 -36 50 56 52 81 49 512 -3 352 -5
401 -20 428 -23 43 -71 81 -116 94 -47 13 -58 12 -107 -6z"/>
<path d="M3575 6814 c-45 -23 -83 -63 -94 -98 -5 -17 -12 -103 -16 -191 -13
-348 -78 -706 -161 -893 -26 -59 -32 -138 -13 -175 17 -32 60 -77 91 -93 34
-18 109 -18 151 0 52 22 84 65 122 163 101 264 175 699 175 1037 0 125 -2 142
-22 178 -44 77 -156 112 -233 72z"/>
<path d="M5590 6819 c-33 -13 -78 -56 -98 -94 -31 -60 -9 -383 43 -611 51
-225 113 -403 220 -629 76 -162 130 -250 167 -273 101 -62 231 -17 274 93 24
64 15 97 -71 267 -177 347 -264 646 -280 968 -3 69 -8 140 -11 158 -6 37 -53
96 -95 118 -32 16 -112 18 -149 3z"/>
</g>
</svg>
